<svg width="200" height="209" viewBox="0 0 200 209" fill="none" xmlns="http://www.w3.org/2000/svg">
<g filter="url(#filter0_d_1264_1127)">
<path d="M76.7016 47.4877L80.7421 48.4576L80.6239 49.0469L76.5415 48.056L76.7016 47.4877Z" fill="#171717"/>
<path d="M84.8452 49.0937L88.9855 49.3611L88.9746 49.9814L84.7773 49.7006L84.8452 49.0937" fill="#171717"/>
<path d="M93.1421 49.2661L97.3 48.9861L97.3553 49.6249L93.1714 49.8965L93.1421 49.2661" fill="#171717"/>
<path d="M10.4258 193.489L32.7927 193.285L55.1579 193.167L99.8899 193.07L144.621 193.166L166.987 193.283L189.354 193.489L166.987 193.694L144.621 193.811L99.8899 193.907L55.1579 193.809L32.7927 193.692L10.4258 193.489Z" fill="#515455"/>
<path d="M108.804 158.53C108.298 156.24 109.727 153.942 109.647 151.617C108.436 151.989 107.057 151.997 105.839 151.638C105.704 151.599 105.539 151.559 105.427 151.632L105.319 151.836C104.946 153.599 104.773 155.436 103.757 157.028C103.583 157.301 103.405 157.674 103.695 157.874" fill="#E78873"/>
<path d="M124.797 163.785C120.945 164.004 117.79 164.179 113.939 164.399C112.761 164.466 111.521 164.522 110.463 164.036C109.881 163.768 109.296 163.33 108.66 163.464C108.169 163.567 107.832 163.988 107.383 164.203C106.99 164.392 106.533 164.414 106.092 164.432C104.744 164.487 103.398 164.544 102.05 164.599C101.606 164.617 101.116 164.622 100.775 164.357C100.373 164.045 100.337 163.491 100.351 163.003C100.403 161.072 100.738 159.149 101.339 157.301C101.477 156.88 101.682 156.41 102.129 156.27C102.539 156.14 102.973 156.349 103.355 156.538C104.899 157.306 106.916 157.829 108.304 156.83C108.665 156.569 108.96 156.218 109.377 156.047C109.838 155.857 110.367 155.922 110.864 155.996C115.148 156.638 119.34 157.811 123.292 159.476C124.189 159.854 125.117 160.291 125.661 161.056C126.205 161.821 126.191 163.009 125.377 163.529" fill="#080D14"/>
<path d="M43.1478 54.4569C40.488 50.8222 41.4788 45.4505 45.122 43.7572C48.6561 47.2394 47.9637 53.622 43.8704 55.2969" fill="#61AE51"/>
<path d="M52.3941 54.5501C49.0452 52.8434 44.8237 54.6633 44.2352 58.0684C44.1832 58.3643 44.1631 58.6962 44.3333 58.9771C44.4883 59.2336 44.7708 59.3912 45.0433 59.5136C47.9286 60.8079 51.3941 59.3794 52.1418 56.5871" fill="#61AE51"/>
<path d="M38.3453 53.2332C40.503 55.8461 40.6346 59.7549 38.6378 61.9512C38.5003 62.1013 38.3252 62.2547 38.1047 62.2228C37.8666 62.1884 37.6897 61.9546 37.5598 61.74C35.9587 59.0986 36.1683 55.6793 38.0519 53.7076" fill="#61AE51"/>
<path d="M25.3515 87.7392C25.701 82.1546 29.3081 77.7847 32.8716 73.7802C34.6815 71.7474 36.519 69.7339 38.1092 67.52C39.8494 65.0957 41.3156 62.4794 42.4925 59.7383C43.8405 56.5981 44.807 53.3154 45.3997 49.9514C45.4927 49.4199 44.6804 49.1919 44.5857 49.7259C43.5085 55.842 41.1756 61.7057 37.5953 66.7907C34.4535 71.2537 30.2118 74.8507 27.3047 79.488C25.7312 81.997 24.6934 84.7683 24.5073 87.7392C24.4738 88.2816 25.3179 88.279 25.3515 87.7392Z" fill="#306D54"/>
<path d="M41.8568 60.7616C43.8141 59.9787 45.6072 58.8596 47.1429 57.4119C47.5386 57.0389 46.9409 56.4428 46.5461 56.8159C45.1227 58.1571 43.4486 59.2217 41.6321 59.9477C41.4208 60.0315 41.2725 60.2293 41.3379 60.4666C41.3932 60.6678 41.6438 60.8463 41.8568 60.7616Z" fill="#306D54"/>
<path d="M38.2615 58.1369C37.0066 60.142 37.5046 62.7767 38.9045 64.5631C39.0461 64.7442 39.3521 64.7089 39.5013 64.5631C39.6799 64.3879 39.6405 64.1448 39.5013 63.9662C38.3311 62.4733 37.9514 60.2225 38.99 58.5627C39.2792 58.1008 38.5491 57.6766 38.2615 58.1369Z" fill="#306D54"/>
<path d="M32.5403 56.1847C31.6082 64.4116 32.1296 71.2242 35.9597 71.6585C40.0035 72.117 41.8226 65.5675 42.7539 57.3407C43.6861 49.1147 43.3776 42.3247 39.3346 41.867C35.5037 41.4328 33.4717 47.9579 32.5403 56.1847Z" fill="#BC6531"/>
<path d="M34.8613 52.8204C35.5118 53.8993 36.9252 55.0218 38.1826 55.0871C39.44 55.1542 40.7133 54.5615 41.4737 53.5573C39.5012 53.9865 36.8288 53.5849 34.9619 52.8162" fill="#F57E46"/>
<path d="M34.3496 58.0947C35.0177 59.1618 36.4487 60.2625 37.7069 60.3086C38.9652 60.3547 40.2293 59.7419 40.9728 58.7268C39.0079 59.187 36.3288 58.8265 34.451 58.088" fill="#F57E46"/>
<path d="M33.9858 63.4164C34.5399 64.3352 35.7437 65.2908 36.815 65.3478C37.8855 65.404 38.9711 64.8993 39.6182 64.0443C37.9383 64.4098 35.6616 64.0669 34.0713 63.4122" fill="#F57E46"/>
<path d="M35.7759 47.9763C36.33 48.8942 37.5337 49.8507 38.6051 49.9069C39.6764 49.963 40.7611 49.4592 41.4082 48.6034C39.7283 48.9688 37.4516 48.626 35.8622 47.9721" fill="#F57E46"/>
<path d="M28.4364 45.7455L28.4188 42.6086L32.3847 42.586L32.4015 45.5502C32.4074 46.5737 32.85 47.5469 33.6178 48.2242L34.8526 49.3132C36.0044 50.33 36.6683 51.7886 36.6767 53.3243L36.8167 77.9537C36.8209 78.6436 36.2651 79.2061 35.5752 79.2094L25.645 79.2656C24.9559 79.2698 24.3934 78.714 24.3901 78.0249L24.2501 53.5037C24.2409 51.9051 24.9417 50.3853 26.163 49.3543L27.1614 48.5126C27.9754 47.8252 28.4431 46.8109 28.4364 45.7455" fill="#ECDBB7"/>
<path d="M21.0753 59.4647C20.3242 53.6797 15.6927 48.6006 10 47.3214C12.457 52.5112 16.2309 57.0705 20.8708 60.4521" fill="#61AE51"/>
<path d="M22.9428 60.085C25.0117 53.6864 23.1935 46.1939 18.4212 41.456C18.2737 47.5536 19.2192 53.6747 21.1984 59.4445" fill="#61AE51"/>
<path d="M22.9095 58.7281C25.6306 56.2761 26.6717 52.1275 25.4294 48.6814C22.4803 51.6505 20.6495 55.7044 20.3721 59.8799" fill="#72C45E"/>
<path d="M22.0516 60.335C22.4355 55.5241 20.2962 50.5816 16.5265 47.5689C16.1484 51.8617 17.4964 56.2819 20.2057 59.6333" fill="#72C45E"/>
<path d="M21.269 59.314C22.1115 57.7841 24.5568 57.9476 25.7748 59.2C26.9919 60.4524 27.3004 62.3058 27.5234 64.0377C28.531 71.8613 28.9787 79.7461 29.4255 87.6209C28.6325 87.916 27.9384 87.0232 27.5628 86.2654C23.9029 78.8525 20.8901 71.1203 18.5689 63.186C18.3443 62.419 18.1255 61.6017 18.346 60.833C18.5664 60.0659 19.4081 59.4196 20.1533 59.7072" fill="#F68942"/>
<path d="M21.1683 61.6159C20.3778 61.8321 19.5881 62.0484 18.7976 62.2655C18.4975 62.3477 18.2829 62.6914 18.3818 62.9974C18.4807 63.305 18.7926 63.502 19.1145 63.4131C19.9041 63.1969 20.6946 62.9806 21.4843 62.7643C21.7852 62.6822 21.9998 62.3376 21.9001 62.0317C21.8012 61.724 21.4902 61.5278 21.1683 61.6159" fill="#DE7738"/>
<path d="M26.8084 63.719C26.0799 63.9302 25.3523 64.1423 24.6238 64.3535C24.3245 64.4407 24.1074 64.7769 24.208 65.0862C24.3061 65.3905 24.6205 65.5959 24.9398 65.502C25.6683 65.2907 26.3968 65.0786 27.1244 64.8674C27.4237 64.781 27.6408 64.4441 27.5402 64.1347C27.4421 63.8313 27.1286 63.6259 26.8084 63.719Z" fill="#DE7738"/>
<path d="M22.3236 67.9374C21.7602 68.0707 21.2078 68.2442 20.6688 68.4563C20.5196 68.5141 20.3964 68.5862 20.3125 68.7296C20.2379 68.857 20.206 69.0456 20.253 69.1881C20.2991 69.3323 20.3888 69.4714 20.5263 69.5444C20.6596 69.6148 20.8389 69.6617 20.9856 69.6039C21.5247 69.3926 22.0771 69.2191 22.6404 69.085C22.9439 69.0129 23.1526 68.6508 23.0562 68.3532C22.9539 68.0371 22.6488 67.8594 22.3236 67.9374" fill="#DE7738"/>
<path d="M27.7251 70.2954C27.1769 70.4764 26.6286 70.6575 26.0804 70.8386C25.9329 70.8864 25.8038 70.9761 25.7241 71.1119C25.6495 71.2393 25.6177 71.4279 25.6646 71.5712C25.7593 71.8646 26.0796 72.091 26.3964 71.987C26.9447 71.806 27.4938 71.6249 28.042 71.4438C28.1887 71.396 28.3186 71.3055 28.3974 71.1705C28.4729 71.0431 28.5039 70.8545 28.4578 70.7112C28.3622 70.4169 28.042 70.1914 27.7251 70.2954Z" fill="#DE7738"/>
<path d="M24.3771 75.1113C23.9932 75.1784 23.6084 75.2463 23.2245 75.3134C23.0853 75.3385 22.9369 75.4701 22.8682 75.5875C22.7936 75.7149 22.7617 75.9035 22.8087 76.046C22.8556 76.1902 22.9445 76.3294 23.0819 76.4023L23.2245 76.4627C23.3301 76.4903 23.4349 76.4903 23.5405 76.4627C23.9253 76.3939 24.3092 76.3269 24.6939 76.259C24.8322 76.2355 24.9806 76.103 25.0494 75.9857C25.124 75.8583 25.1558 75.6697 25.1097 75.5271C25.0628 75.383 24.9739 75.2438 24.8356 75.1709L24.6939 75.1113C24.5883 75.0828 24.4827 75.0828 24.3771 75.1113" fill="#DE7738"/>
<path d="M28.3061 77.1895C27.9658 77.3228 27.612 77.415 27.2499 77.4653L27.4083 77.4435L27.2499 77.4627C27.1686 77.4602 27.0914 77.477 27.0202 77.5139L26.8291 77.6379C26.726 77.7411 26.648 77.9104 26.6547 78.0588C26.6614 78.2122 26.7117 78.3723 26.8291 78.4796C26.938 78.5802 27.0956 78.6698 27.2499 78.6539C27.721 78.6053 28.1812 78.5106 28.623 78.3379C28.7001 78.3186 28.768 78.2834 28.8258 78.2314L28.9792 78.0646C29.0538 77.9364 29.0849 77.7486 29.0388 77.6052C28.9918 77.4611 28.9029 77.3219 28.7655 77.249C28.6322 77.1786 28.4528 77.1316 28.3061 77.1895Z" fill="#DE7738"/>
<path d="M22.9134 57.6792C22.6544 57.8619 22.3836 58.0271 22.1003 58.1704C21.8077 58.318 21.6384 58.3884 21.3047 58.4957C21.003 58.5938 20.6936 58.6692 20.381 58.7212C20.3742 58.7229 20.1907 58.7514 20.2888 58.7371C20.2049 58.7488 20.1203 58.7572 20.0364 58.7648C19.8679 58.7798 19.6986 58.7866 19.5301 58.7891C19.2183 58.7924 18.9198 59.0598 18.9341 59.3843C18.9483 59.7036 19.1956 59.9836 19.5301 59.9794C20.946 59.9627 22.3543 59.5234 23.5153 58.7078C23.7693 58.5284 23.9126 58.1788 23.729 57.893C23.5656 57.6406 23.1867 57.4872 22.9134 57.6792" fill="#DE7738"/>
<path d="M57.536 114.89H18.0557V85.6184H57.536V114.89" fill="#E9B19E"/>
<path d="M52.0092 85.9033H10.9487V58.0382H52.0092V85.9033Z" fill="#C99B84"/>
<path d="M24.2096 57.8419C26.5853 65.7829 29.0691 73.692 31.5889 81.5886C34.1105 89.4868 36.6689 97.3733 39.1996 105.269C40.5987 109.635 41.9886 114.004 43.3583 118.379C43.5184 118.893 44.3282 118.673 44.1664 118.157C41.7145 110.321 39.1955 102.508 36.6781 94.6942C34.1289 86.7809 31.5797 78.8684 29.0984 70.9341C27.7127 66.5038 26.3489 62.0668 25.0177 57.6198C24.8634 57.1034 24.0545 57.3231 24.2096 57.8419" fill="#080D14"/>
<path d="M31.8828 118.554C33.6608 110.639 35.3961 102.714 37.1196 94.7872C38.8229 86.9561 40.5162 79.1224 42.2347 71.2946C43.2188 66.8081 44.2122 62.3233 45.219 57.8419C45.3363 57.3163 44.5291 57.0925 44.4101 57.6197C42.6329 65.5339 40.8977 73.4598 39.1733 81.3874C37.4708 89.2177 35.7775 97.0514 34.059 104.879C33.0741 109.366 32.0807 113.85 31.0748 118.332C30.9566 118.857 31.7647 119.081 31.8828 118.554" fill="#080D14"/>
<path d="M63.13 114.89H15.3584V118.246H63.13V114.89Z" fill="#201C26"/>
<path d="M43.6305 130.857L28.3638 115.592L26.7778 117.179L42.0437 132.444L43.6305 130.857Z" fill="#201C26"/>
<path d="M141.235 163.329H69.3809V172.016H141.235V163.329" fill="#080D14"/>
<path d="M31.8302 162.508C30.0748 142.154 41.3437 130.617 48.148 124.431C53.9388 119.167 62.5412 115.549 66.3973 114.605C79.2942 111.446 85.2862 112.692 96.929 114.255C90.7878 121.273 87.9033 123.534 84.4705 131.976C81.2247 139.96 80.2506 144.437 82.1896 151.804C83.9441 158.473 89.7383 160.524 93.5952 160.753C111.318 161.806 117.297 159.677 127.637 150.05C137.365 140.991 141.575 126.274 141.123 112.988C140.7 100.577 136.678 88.5834 131.66 77.1962C130.932 75.544 131.753 73.6168 133.451 73.0048C133.806 72.8766 134.336 72.6913 135.205 72.3686C136.726 71.8028 138.451 71.3208 139.932 71.988C140.994 72.4667 141.725 73.4558 142.376 74.4224C151.588 88.1072 159.935 114.122 158.694 130.573C157.454 147.023 153.705 152.055 148.692 167.772C118.336 169.922 80.0402 169.132 35.0324 168.738" fill="#2C2733"/>
<path d="M32.8633 150.551L66.9367 169.045C71.0317 169.083 75.0604 169.118 79.0196 169.145C79.1646 167.453 79.3096 165.762 79.4546 164.07C79.8796 159.115 80.303 154.1 79.5234 149.187C78.743 144.275 76.7453 138.957 72.8901 135.814C69.5655 133.105 63.659 130.835 59.3788 130.55C52.2048 130.073 46.6211 131.048 40.1328 133.73C36.9516 138.124 34.1199 143.65 32.8633 150.551" fill="#201C26"/>
<path d="M153.626 119.936C153.142 130.666 150.625 141.451 145.138 150.683L153.225 154.832C155.92 147.45 157.867 141.555 158.694 130.572C159.496 119.951 156.298 105.348 151.453 92.6446C153.028 101.665 154.037 110.8 153.626 119.936" fill="#201C26"/>
<path d="M62.9645 118.942C67.7888 120.231 72.7028 121.186 77.6587 121.796C79.9891 122.081 82.4067 122.317 84.4437 123.484C85.5997 124.146 86.5964 125.209 87.1253 126.417C89.6401 122.024 92.3972 119.432 96.929 114.254C85.2862 112.692 79.2942 111.446 66.3973 114.605C64.6839 115.024 62.0307 115.975 59.106 117.36C60.2234 118.137 61.6258 118.585 62.9645 118.942Z" fill="#201C26"/>
<path d="M157.82 82.3329C158.718 82.3538 159.601 82.1912 160.394 81.8299C161.195 81.4946 161.92 81 162.522 80.3914C163.722 79.186 164.51 77.5404 164.419 75.8806C164.355 74.22 163.418 72.655 162.112 71.566C161.455 71.0161 160.688 70.5886 159.86 70.3304C159.038 70.0437 158.144 69.9632 157.25 70.0663C158.107 69.7763 159.054 69.7654 159.963 69.9322C160.87 70.125 161.734 70.5165 162.502 71.053C164.034 72.1201 165.16 73.8889 165.256 75.8412C165.341 77.7936 164.383 79.6604 162.957 80.8642C162.242 81.4686 161.418 81.9389 160.532 82.2147C159.643 82.4653 158.699 82.5416 157.82 82.3329" fill="#201C26"/>
<path d="M146.538 87.8857C146.692 86.2553 147.666 84.7229 149.078 83.8922C150.49 83.0623 152.302 82.9542 153.804 83.6114C154.699 84.0045 155.47 84.6433 156.366 85.0364C157.758 85.6484 158.94 85.8756 160.3 85.1965C160.509 85.0926 160.717 84.9685 160.844 84.7749C161.005 84.531 161.239 83.883 161.239 83.5904C161.238 79.2993 161.278 75.076 160.854 70.8059C160.763 69.8888 160.993 68.939 160.449 68.193C160.056 67.6548 159.473 67.2801 158.856 67.032C157.227 66.3764 154.936 66.5583 153.472 67.524C151.161 69.0489 150.281 72.1069 148.057 73.7558C145.733 75.4776 143.868 76.0887 140.577 72.4045C139.575 71.2812 136.651 73.9461 135.249 74.4951" fill="#2C2733"/>
<path d="M161.217 77.9967C159.469 79.2692 157.269 79.913 155.112 79.7503C153.937 79.6623 152.765 79.3471 151.594 79.4779C150.116 79.6422 148.815 80.4922 147.578 81.3187C147.367 81.4604 147.14 81.6197 147.063 81.8619C146.971 82.1461 147.11 82.4471 147.247 82.7128C147.563 83.3289 147.879 83.9451 148.195 84.562C148.465 84.3089 148.759 84.08 149.079 83.8922C150.49 83.0623 152.303 82.9542 153.804 83.6114C154.699 84.0046 155.47 84.6433 156.367 85.0365C157.758 85.6484 158.94 85.8756 160.301 85.1966C160.509 85.0926 160.717 84.9686 160.845 84.7749C161.005 84.531 161.239 83.883 161.239 83.5905C161.239 81.7161 161.244 79.8543 161.217 77.9967Z" fill="#201C26"/>
<path d="M34.045 162.42H24.9648C22.8934 162.42 21.2144 160.741 21.2144 158.669C21.2144 156.597 22.8934 154.918 24.9648 154.918H34.045C36.1164 154.918 37.7963 156.597 37.7963 158.669C37.7963 160.741 36.1164 162.42 34.045 162.42Z" fill="#080D14"/>
<path d="M69.9066 174.856C69.9066 185.432 61.3344 194.005 50.7587 194.005C40.1839 194.005 31.6108 185.432 31.6108 174.856C31.6108 164.281 40.1839 155.709 50.7587 155.709C61.3344 155.709 69.9066 164.281 69.9066 174.856Z" fill="#2C2733"/>
<path d="M62.4275 174.856C62.4275 181.301 57.2033 186.525 50.7587 186.525C44.3148 186.525 39.0898 181.301 39.0898 174.856C39.0898 168.412 44.3148 163.188 50.7587 163.188C57.2033 163.188 62.4275 168.412 62.4275 174.856Z" fill="white"/>
<path d="M60.164 174.856C60.164 180.03 55.9693 184.225 50.7963 184.225C45.6216 184.225 41.4277 180.03 41.4277 174.856C41.4277 169.683 45.6216 165.488 50.7963 165.488C55.9693 165.488 60.164 169.683 60.164 174.856Z" fill="#201C26"/>
<path d="M77.9783 172.652C76.5751 179.671 26.2148 178.577 26.2148 170.825C26.2148 159.333 31.9176 135.814 58.0634 135.814C82.8043 135.814 80.3197 160.947 77.9783 172.652Z" fill="#ECDBB7"/>
<path d="M171.533 174.856C171.533 185.432 162.96 194.005 152.385 194.005C141.81 194.005 133.237 185.432 133.237 174.856C133.237 164.281 141.81 155.709 152.385 155.709C162.96 155.709 171.533 164.281 171.533 174.856Z" fill="#2C2733"/>
<path d="M164.404 174.856C164.404 181.494 159.023 186.876 152.384 186.876C145.746 186.876 140.364 181.494 140.364 174.856C140.364 168.218 145.746 162.838 152.384 162.838C159.023 162.838 164.404 168.218 164.404 174.856" fill="white"/>
<path d="M162.035 174.856C162.035 180.186 157.714 184.506 152.385 184.506C147.056 184.506 142.734 180.186 142.734 174.856C142.734 169.527 147.056 165.207 152.385 165.207C157.714 165.207 162.035 169.527 162.035 174.856" fill="#201C26"/>
<path d="M176.88 170.825C176.88 177.76 127.348 178.577 127.348 170.825C127.348 159.333 136.084 146.832 149.746 146.156C167.468 145.279 176.88 159.333 176.88 170.825" fill="#ECDBB7"/>
<path d="M30.3384 168.987C30.5773 166.19 31.0836 163.411 31.854 160.696C32.6151 157.978 33.694 155.338 35.0897 152.869C36.4963 150.41 38.2425 148.112 40.3893 146.244C41.4598 145.311 42.6116 144.474 43.8279 143.754C45.0585 143.058 46.336 142.451 47.6664 142C45.1465 143.231 42.8102 144.792 40.826 146.719C38.8419 148.644 37.1762 150.875 35.8174 153.283C34.4384 155.683 33.362 158.252 32.4668 160.885C31.5799 163.524 30.9193 166.242 30.3384 168.987" fill="#201C26"/>
<path d="M36.2949 163.99C36.4165 161.211 37.2371 158.453 38.5884 155.989C39.9506 153.541 41.9089 151.341 44.3759 150.027C42.3079 151.881 40.628 154.021 39.3211 156.395C37.9983 158.761 37.0687 161.325 36.2949 163.99Z" fill="#201C26"/>
<path d="M172.206 169.944C172.037 168.411 171.672 166.935 171.204 165.502C170.722 164.073 170.13 162.684 169.407 161.364C168.699 160.038 167.868 158.777 166.932 157.598C165.986 156.427 164.939 155.326 163.716 154.385C165.112 155.048 166.363 156.029 167.426 157.169C168.5 158.303 169.396 159.597 170.146 160.967C170.88 162.344 171.463 163.805 171.83 165.322C172.207 166.832 172.362 168.408 172.206 169.944" fill="#201C26"/>
<path d="M167.881 170.743C167.563 169.027 167.111 167.43 166.479 165.879C166.171 165.102 165.811 164.347 165.407 163.616C164.993 162.889 164.544 162.189 163.94 161.556C164.753 161.905 165.417 162.559 165.953 163.256C166.498 163.959 166.916 164.747 167.254 165.564C167.578 166.385 167.822 167.241 167.937 168.116C168.056 168.989 168.065 169.884 167.881 170.743" fill="#201C26"/>
<path d="M138.582 81.4554C137.546 80.5769 136.031 80.592 135.002 81.4805C131.164 84.7942 128.329 87.7709 124.084 91.2121C123.814 91.4317 123.601 91.7268 123.469 92.0512C123.176 92.7738 123.509 93.5936 123.907 94.2634C124.541 95.328 125.678 96.3909 126.852 96.012C127.249 95.8838 127.577 95.6046 127.894 95.3313C131.563 92.1685 135.166 88.9261 138.698 85.6082C139.905 84.4732 139.847 82.5259 138.582 81.4554" fill="#080D14"/>
<path d="M135.27 85.8875C133.834 83.3165 130.195 82.3818 127.581 83.7365C126.872 84.1045 126.236 84.6083 125.512 84.9486C124.384 85.4751 123.109 85.574 121.868 85.6645C121.051 85.7232 120.274 85.7148 119.506 85.6662C119.465 87.3788 119.424 89.0914 119.383 90.8048C121.183 90.892 122.99 90.9817 124.302 90.9825C124.619 90.9825 125.011 90.5533 125.267 90.3681C125.564 90.1543 126.215 89.3739 126.496 89.14C127.549 88.2632 127.856 87.5749 129.353 88.1089C130.849 88.6429 131.762 90.4402 131.309 91.9633C131.229 92.2316 131.112 92.5149 131.195 92.7823C131.359 93.3029 132.096 93.3264 132.614 93.1537C135.405 92.2215 136.705 88.4568 135.27 85.8875" fill="#72C45E"/>
<path d="M98.1802 158.156C98.4954 156.569 98.9539 155.003 99.5499 153.476C99.591 153.371 99.6346 153.262 99.7327 153.186C99.8576 153.09 100.042 153.067 100.215 153.051C101.796 152.898 103.385 152.787 104.977 152.719C104.495 155.077 104.223 157.465 104.165 159.86" fill="#F89C83"/>
<path d="M71.35 110.498C67.9508 107.137 67.1092 97.2116 70.8102 94.1863C75.7426 90.155 83.9686 92.5466 88.4375 93.6238C95.5746 95.3456 105.107 97.0356 113.015 99.2621C118.305 100.752 122.011 102.455 124.438 105.386C127.663 109.279 125.766 114.365 123.263 121.354C118.824 133.745 115.318 141.907 110.204 153.637C109.976 154.158 109.459 154.501 108.889 154.509C107.337 154.53 106.071 154.582 104.34 154.376C103.75 154.307 103.085 154.192 102.759 153.696C102.44 153.214 102.611 152.583 102.73 152.017C105.954 136.67 105.08 128.09 111.199 116.403C99.6469 116.804 89.2992 115.671 78.2616 112.237" fill="#6BAB60"/>
<path d="M135.004 86.0119C135.088 86.2692 134.79 85.6229 134.523 85.6741C128.348 86.8535 125.788 86.8845 120.574 87.1209C116.116 87.3246 109.7 86.3531 106.468 85.6506C103.457 84.9968 99.1296 83.3973 96.9266 79.8564C93.0764 73.6691 89.901 68.9019 86.8949 62.2636C84.8487 57.7427 82.7363 53.8481 83.93 48.8729C84.21 47.7069 85.6233 45.8853 87.4817 44.5617C90.4409 42.4551 94.0027 43.7687 96.2275 45.5349C99.2109 47.9039 100.213 51.8547 101.158 54.5338C103.151 60.1863 104.078 64.9636 106.071 70.6161C106.956 73.1276 108.002 75.8411 110.298 77.1899C111.612 77.9619 113.172 78.1749 114.684 78.3719C120.792 79.1691 126.69 79.33 132.791 80.1079C132.964 80.1306 133.112 80.2504 133.165 80.4164L135.004 86.0119Z" fill="#EA841E"/>
<path d="M106.171 76.2168C107.124 76.1808 107.995 76.2084 108.948 76.1724Z" fill="#EA841E"/>
<path d="M108.527 75.9536C106.785 74.2251 106.413 71.66 105.691 69.3145Z" fill="#EA841E"/>
<path d="M66.6172 101.334C67.4035 87.7012 70.1497 83.3975 69.6442 69.7504C69.381 62.6435 67.8847 56.001 70.1698 50.0098C71.9662 45.3038 77.1275 40.8274 82.3131 40.8693C85.2613 40.8928 90.617 41.6808 94.3524 44.5099C100.547 49.2034 100.042 57.0514 100.438 64.7493C101.126 78.0552 98.8598 91.0694 100.438 105.02" fill="#ECDBB7"/>
<path d="M68.0649 111.074C64.7236 107.655 64.0496 97.7168 67.8017 94.7543C72.8029 90.8069 80.987 93.3376 85.4365 94.4911C92.5426 96.3336 102.044 98.1845 109.914 100.545C115.178 102.124 118.854 103.89 121.232 106.862C124.39 110.81 122.407 115.863 119.785 122.808C115.219 134.904 111.058 143.023 105.85 154.347C105.46 155.195 104.593 155.72 103.66 155.681C102.575 155.636 101.774 155.704 100.304 155.504C99.7166 155.425 99.0543 155.298 98.7358 154.798C98.4256 154.31 98.6075 153.683 98.7358 153.118C102.22 137.828 101.491 129.234 107.808 117.653C96.2503 117.857 85.9244 116.55 74.9455 112.928" fill="#77B86C"/>
<path d="M90.103 34.492C85.5294 34.87 79.9909 33.1482 78.8517 29.9267C77.3855 25.7789 76.3771 24.0252 76.1759 20.9999C76.0032 18.3828 75.6587 16.7205 77.1274 14.1973C78.596 11.6732 81.5023 9.34116 85.3081 8.40146C87.8832 7.7652 90.6521 7.80291 93.2499 8.0938C94.9449 8.28325 95.5191 10.4452 94.3765 11.3539C81.3506 21.7116 86.3567 19.1632 91.295 16.6157C93.4955 15.4799 95.6834 14.344 96.2551 14.3515C98.075 14.3742 94.5609 15.4229 95.1637 16.4447C95.8561 17.6175 95.9106 18.3602 94.8644 19.6352C94.2709 20.3595 96.5468 21.9354 95.1352 24.1602C93.8593 26.1712 95.5962 33.3385 92.5759 34.1843L90.103 34.492" fill="#2C2733"/>
<path d="M83.561 42.3114C82.7471 41.6567 82.1477 41.5234 82.2659 40.3817C82.5643 37.5106 82.9902 35.8248 83.1997 33.8851C83.2861 33.087 83.3724 32.2898 83.4898 31.4951C83.5157 31.3157 83.5509 31.1213 83.6683 30.9938C83.7664 30.8874 83.903 30.8497 84.033 30.8287C85.3113 30.6124 86.4707 31.4214 87.6887 31.7894C89.1783 32.2387 90.802 32.0283 92.3076 32.4172C92.4886 32.4642 92.6865 32.5371 92.7669 32.7291C92.813 32.8406 92.8105 32.973 92.8072 33.1004C92.7468 35.4057 92.5004 37.7646 92.3973 40.6642C92.373 41.3172 92.4107 42.4103 92.1475 43.0021L91.3343 43.6602C90.5682 44.3509 87.7063 44.1539 86.2577 43.4959C86.2577 43.4959 84.4353 43.0156 83.561 42.3114" fill="#F89C83"/>
<path d="M83.6686 30.9935C83.7667 30.887 83.9033 30.8493 84.0333 30.8283C85.3116 30.612 86.471 31.421 87.689 31.789C89.1786 32.2383 90.8023 32.0279 92.3078 32.4168C92.4889 32.4638 92.6867 32.5367 92.7672 32.7287C92.8133 32.8402 92.8108 32.9726 92.8075 33.1C92.7739 34.3893 92.7396 35.6777 92.706 36.967C91.2944 37.7567 89.7796 38.2261 88.2657 38.185C86.1876 38.1288 84.154 36.9754 83.0776 35.0205C83.1187 34.6416 83.1598 34.2627 83.2 33.8847C83.2864 33.0866 83.3727 32.2894 83.4901 31.4947C83.516 31.3153 83.5512 31.1209 83.6686 30.9935" fill="#E78873"/>
<path d="M80.6375 26.5371C79.0708 25.9285 77.5057 24.713 77.5786 23.4498C77.6516 22.1856 79.3088 21.1151 80.9938 21.4479" fill="#F89C83"/>
<path d="M80.728 27.5577C81.6341 33.8842 85.9655 35.0737 90.4134 36.9589C91.1997 37.2917 92.5569 37.5256 93.4421 37.5105C95.614 37.4728 96.8564 35.554 97.5094 33.8917C98.6478 30.9988 99.4265 28.0112 99.8306 24.9892C100.108 22.9086 100.67 19.6268 99.8859 17.6241C99.1021 15.6207 96.8329 14.9039 94.3457 14.2677C91.2483 13.4738 87.8818 14.712 85.4977 16.4623C81.9803 19.0442 79.8268 22.9824 80.6181 26.7831L80.728 27.5577" fill="#F89C83"/>
<path d="M93.5733 20.0798C93.4945 20.1243 93.5632 20.2199 93.6638 20.2417C93.7653 20.2626 93.8692 20.2358 93.9664 20.2115C95.1367 19.9189 96.5366 20.0153 97.6423 20.4638C97.8133 20.5325 97.9843 20.6113 98.1779 20.6289C98.3724 20.6457 98.5962 20.5744 98.6155 20.4462L98.5543 20.2852C98.3951 20.0715 98.1008 19.9105 97.7915 19.7873C96.7923 19.3874 95.5256 19.3137 94.4828 19.5945C94.093 19.6993 93.7183 19.8619 93.5322 20.1117" fill="#2C2733"/>
<path d="M90.8155 30.8765C90.1918 30.8765 89.5514 30.6619 89.0031 30.2201C87.7223 29.1907 87.3836 27.4077 88.2956 26.1234C88.8338 25.364 89.6897 24.9482 90.5632 24.9482C91.1676 24.9482 91.7812 25.1469 92.3051 25.5685C93.586 26.5988 93.8861 28.4748 92.9741 29.7599C92.4526 30.4942 91.6487 30.8765 90.8155 30.8765" fill="#F5856A"/>
<path d="M95.2536 23.3269C95.0784 24.052 95.2921 24.7193 95.7322 24.8165C96.1723 24.9146 96.6711 24.4058 96.8471 23.6807C97.0231 22.9547 96.8085 22.2883 96.3684 22.1902C95.9275 22.0921 95.4296 22.6009 95.2536 23.3269" fill="#2C2733"/>
<path d="M94.2968 12.1189C99.9937 9.02734 91.7426 7.99626 87.516 8.09518C86.5101 8.11865 84.7682 10.3686 83.7622 10.4206C81.0496 10.5597 78.8156 12.8432 78.1718 15.3471C77.5288 17.8527 77.7853 18.1822 78.829 20.5419L80.9431 21.1396C80.9565 21.1203 80.8937 22.0215 80.9498 22.9469C80.9557 23.0509 80.9079 24.0157 81.1267 24.4131C81.4293 24.9638 82.2508 24.8792 82.4461 24.2815C83.5435 20.9208 85.106 18.0095 88.2177 16.6842C89.0593 16.436 89.9227 16.26 90.7979 16.1753C92.7695 15.9842 92.2548 15.8803 94.2323 15.7788C96.2098 15.6774 95.9474 15.3982 97.3968 14.1056C98.9887 12.6856 92.4836 13.103 94.2968 12.1189" fill="#2C2733"/>
<path d="M97.9826 22.4833C97.5333 22.0759 96.8954 21.8705 96.3061 21.7817C95.6975 21.6895 94.9833 21.6685 94.4275 21.977C94.0939 22.1622 94.3923 22.6753 94.7276 22.49C95.1476 22.257 95.7495 22.288 96.2047 22.3626C96.6649 22.4397 97.2064 22.5806 97.5626 22.9033C97.8451 23.1598 98.2668 22.7407 97.9826 22.4833" fill="#2C2733"/>
<path d="M101.817 32.0921C100.379 33.2749 98.9716 33.5197 97.2439 32.9547C96.7049 32.7787 95.4785 31.7694 95.2798 31.2413C97.3545 32.2975 99.6087 32.6286 101.858 32.015" fill="#E95959"/>
<path d="M101.817 32.0923C100.319 32.5751 98.5808 32.5735 96.3459 31.8978C95.8388 31.7444 95.3442 31.5055 95.1221 31.1777C97.2345 31.9129 99.8281 32.2365 102.034 31.9741L101.817 32.0923" fill="white"/>
<path d="M83.1614 27.783C83.319 29.0035 83.4758 30.2241 83.6334 31.4454C83.7164 32.0892 83.8027 32.7448 84.0768 33.3332C84.7005 34.6703 86.1432 35.3878 87.4819 36.0073C90.213 37.2698 93.3876 38.5406 96.117 37.274C97.3694 36.6939 97.9629 35.8858 98.5195 34.6225C99.0904 33.3307 99.1985 32.3977 99.517 31.1889C99.7954 30.1276 101.877 29.1309 101.686 28.0487C101.626 27.7143 101.071 26.8517 100.883 26.5692C100.434 25.9011 99.9806 24.6797 99.7618 25.1977C99.5137 25.7845 97.6049 27.0964 97.0307 27.3714C95.4045 28.1476 93.52 28.0822 91.7202 28.0009C89.0336 27.8794 86.0501 27.6262 84.2302 25.6454C82.64 23.9152 82.9041 22.3359 80.9492 21.2939C81.4639 21.8346 82.3902 24.7409 83.1589 27.4837" fill="#ECDBB7"/>
<path d="M112.696 18.4991L112.686 17.9048C112.679 17.4974 112.349 17.1688 111.943 17.1629L100.581 16.9877C99.9194 11.824 96.1857 7.42469 90.9163 6.28044C84.1799 4.81765 77.5056 9.22446 76.0076 16.1226C75.8215 16.9802 75.725 17.8369 75.71 18.6802L100.68 19.122V19.0851L111.929 19.267C112.356 19.2737 112.703 18.9258 112.696 18.4991Z" fill="#77B86C"/>
<path d="M111.943 17.1629L100.581 16.9877L100.559 16.8553L75.7334 18.1253C75.7217 18.3105 75.7133 18.4958 75.71 18.6802L100.68 19.122V19.0851L111.929 19.267C112.356 19.2737 112.703 18.9258 112.696 18.4991L112.686 17.9048C112.679 17.4974 112.349 17.1688 111.943 17.1629" fill="#6BAB60"/>
<path d="M81.5385 41.4735C83.6048 43.1945 86.1096 44.2457 88.7846 44.5215C90.2582 44.6732 93.2903 45.0898 93.2777 42.8374C93.2727 41.8918 91.8024 41.8893 91.8074 42.8374C91.8082 43.0168 91.8082 43.0168 91.6339 43.0746C91.3447 43.171 91.0345 43.1727 90.7327 43.1702C89.9238 43.1652 89.0813 43.1132 88.2841 42.9857C86.1993 42.653 84.205 41.7879 82.5788 40.434C81.8562 39.8322 80.8109 40.8666 81.5385 41.4735Z" fill="#EA841E"/>
<path d="M59.661 117.585C54.4293 116.993 50.5925 112.811 49.9269 109.86C49.6545 108.649 49.7979 107.295 50.8248 106.361C52.0931 105.208 54.3589 105.031 56.2341 105.448C58.1094 105.864 59.7373 106.757 61.4532 107.478C69.6088 110.902 79.4175 110.365 88.6838 110.36C90.2966 110.359 91.9522 110.382 93.4511 110.847C95.7941 111.573 97.4346 113.3 98.2695 115.152C99.1053 117.004 99.2452 118.995 99.3777 120.955C99.4297 121.72 99.2402 122.588 98.469 123.064C97.6039 123.597 96.4412 123.278 95.6817 122.656C94.9214 122.034 94.5249 121.201 93.9079 120.488C91.4853 117.689 86.4339 117.361 82.0991 117.434C75.1498 117.551 59.661 117.585 59.661 117.585" fill="#080D14"/>
<path d="M114.564 90.6313C117.167 90.633 121.7 90.9808 124.302 90.9825C124.619 90.9825 125.011 90.5533 125.267 90.3681C125.564 90.1543 126.215 89.3739 126.496 89.14C127.549 88.2632 127.856 87.5758 129.353 88.1089C130.849 88.6429 131.762 90.4402 131.309 91.9633C131.229 92.2316 131.112 92.5149 131.195 92.7823C131.359 93.3029 132.096 93.3264 132.614 93.1537C135.405 92.2215 136.705 88.4568 135.27 85.8875C133.834 83.3165 130.194 82.3818 127.581 83.7365C126.872 84.1045 126.236 84.6083 125.512 84.9486C124.384 85.4751 123.109 85.574 121.868 85.6645C119.894 85.8079 118.142 85.5664 116.23 85.2797C114.476 85.0165 112.343 84.6058 111.581 84.2269" fill="#F89C83"/>
<path d="M115.001 90.5169C115.043 90.7835 114.832 91.0283 114.562 91.0341C108.276 91.1842 103.856 90.8438 98.6747 90.221C94.2444 89.6878 89.9248 88.5369 86.8516 87.313C83.9889 86.1729 80.044 82.0453 78.4521 78.1901C75.6707 71.4545 73.3219 66.2304 71.4475 59.188C70.1708 54.3931 68.7273 50.2051 70.7224 45.4931C71.1893 44.3891 72.8826 42.8241 74.9339 41.8232C78.1981 40.2313 81.5873 41.2841 83.268 43.5751C84.9488 45.8661 86.2942 51.1079 86.7854 53.9069C87.8232 59.81 87.9531 64.6745 88.9892 70.5768C89.4503 73.2006 90.0362 76.0491 92.0808 77.7558C93.2502 78.7333 94.7524 79.1993 96.211 79.6419C102.107 81.4325 107.897 82.56 113.789 84.3288C113.956 84.3799 114.081 84.5232 114.107 84.6951L115.001 90.5169Z" fill="#EAB133"/>
<path d="M115.195 90.8551C115.19 89.4308 115.097 88.0033 114.898 86.5924C114.783 85.7684 114.675 84.9234 114.091 84.288C113.476 83.6207 112.573 83.246 111.731 82.9619C110.757 82.6341 109.744 82.427 108.735 82.2376C106.097 81.7438 103.497 81.1244 100.909 80.4093C99.3848 79.9877 97.865 79.5425 96.362 79.0505C94.957 78.5919 93.5487 78.0521 92.3559 77.1602C90.3851 75.6865 88.8837 72.7609 86.0755 72.9294C85.539 72.9612 85.5357 73.8003 86.0755 73.7677C88.4109 73.6277 89.8628 76.1626 91.4371 77.4929C93.5353 79.2651 96.357 79.9625 98.9363 80.7186C101.667 81.5192 104.44 82.2963 107.24 82.8143C109.057 83.1496 111.065 83.3693 112.703 84.2821C113.562 84.7608 113.844 85.3291 114.006 86.2697C114.265 87.7769 114.351 89.3277 114.356 90.8551C114.358 91.3949 115.196 91.3957 115.195 90.8551" fill="#EA841E"/>
<path d="M88.04 76.3585C88.937 76.4742 89.8716 76.6535 90.7862 76.7717C91.0042 76.7994 91.2146 76.5588 91.2054 76.3526C91.1945 76.1011 91.0201 75.9628 90.7862 75.9335C89.8901 75.8169 88.9554 75.6384 88.04 75.5202C87.8229 75.4925 87.6125 75.7331 87.6208 75.9393C87.6326 76.1908 87.8069 76.3283 88.04 76.3585Z" fill="#EA841E"/>
<path d="M90.769 75.8563C89.9827 74.7288 89.6474 73.4244 89.4605 72.079C89.2727 70.7319 89.1562 69.3731 88.9852 68.0218C88.613 65.0744 88.3271 62.1161 87.944 59.1687C87.5701 56.2851 87.1125 53.4056 86.3873 50.5873C85.8156 48.3684 85.1551 45.9969 83.9035 44.0488C82.5925 42.0084 80.5915 40.8968 78.1756 40.7652C77.6366 40.735 77.6383 41.5733 78.1756 41.6035C80.3384 41.7217 82.1012 42.7402 83.248 44.5794C84.4635 46.53 85.0947 48.8781 85.6488 51.0861C87.0487 56.6656 87.4369 62.4263 88.1595 68.1156C88.5031 70.8249 88.4202 73.9526 90.0456 76.2796C90.3515 76.718 91.0792 76.2997 90.769 75.8563" fill="#EA841E"/>
<path d="M119.92 165.087C116.064 165.209 112.904 165.305 109.049 165.426C107.87 165.463 106.629 165.489 105.584 164.976C105.008 164.694 104.435 164.24 103.796 164.359C103.302 164.449 102.955 164.861 102.5 165.065C102.103 165.245 101.645 165.255 101.203 165.262C99.8555 165.284 98.5084 165.305 97.1596 165.327C96.7153 165.333 96.2249 165.326 95.8913 165.053C95.4973 164.731 95.4746 164.175 95.5015 163.688C95.6029 161.76 95.9852 159.845 96.6331 158.014C96.7807 157.596 96.9986 157.131 97.4488 157.002C97.8621 156.883 98.2904 157.102 98.6668 157.302C100.191 158.107 102.194 158.682 103.608 157.717C103.975 157.466 104.278 157.123 104.7 156.962C105.166 156.786 105.693 156.863 106.188 156.949C110.455 157.699 114.614 158.978 118.525 160.742C119.412 161.142 120.328 161.602 120.853 162.381C121.377 163.159 121.333 164.346 120.506 164.846" fill="#201C26"/>
</g>
<path d="M62.4045 155.771L61.703 156.035C61.6073 155.796 61.5012 155.562 61.3842 155.334C61.3321 155.232 61.2776 155.131 61.2208 155.032C61.1914 155.049 61.1615 155.065 61.1308 155.079C61.1222 155.063 61.1142 155.048 61.1047 155.032C59.7149 152.57 57.0742 150.907 54.0445 150.907C52.7864 150.907 51.5946 151.195 50.5331 151.706C50.3545 151.792 50.1821 151.883 50.012 151.98C49.7861 152.111 49.5658 152.251 49.3546 152.402C49.2485 152.478 49.1452 152.556 49.0419 152.635C48.5327 153.036 48.0718 153.497 47.6716 154.007C47.5901 154.109 47.5134 154.214 47.4371 154.319C47.2879 154.531 47.1463 154.75 47.016 154.976C46.9293 155.127 46.8478 155.281 46.7706 155.438C46.2406 156.514 45.9436 157.727 45.9436 159.009C45.9436 159.069 45.9436 159.13 45.9455 159.191C45.9459 159.214 45.9459 159.235 45.9474 159.257C45.9478 159.298 45.9488 159.339 45.9516 159.38C45.9526 159.413 45.9549 159.446 45.9573 159.479C45.9587 159.517 45.9606 159.554 45.9644 159.592C45.9658 159.619 45.9673 159.646 45.9701 159.673C45.9734 159.709 45.9763 159.745 45.9805 159.782C45.9838 159.832 45.9905 159.884 45.9957 159.936C46.0028 160.002 46.0118 160.068 46.0208 160.134C46.0208 160.134 46.0208 160.134 46.0208 160.135C46.0298 160.2 46.0388 160.266 46.0516 160.332C46.0814 160.516 46.1184 160.698 46.1619 160.878L45.2994 161.31C45.1042 160.572 45 159.798 45 159C45 154.029 49.0306 150 54.0014 150C57.8339 150 61.1071 152.395 62.4045 155.771Z" fill="white"/>
<path d="M63.0007 159C63.0007 163.971 58.9725 168 54.0008 168C50.7513 168 47.9031 166.277 46.3214 163.696C46.1059 163.345 45.915 162.979 45.7483 162.6C45.7071 162.505 45.6668 162.41 45.6289 162.312L46.4024 161.94V161.94L46.4763 161.904C46.4768 161.906 46.4768 161.906 46.4777 161.907C46.4943 161.95 46.5114 161.993 46.528 162.035C46.6473 162.332 46.7837 162.62 46.9367 162.898C46.9386 162.902 46.941 162.906 46.9429 162.91C48.0883 164.991 50.1213 166.515 52.5328 166.969C52.5977 166.983 52.6631 166.994 52.728 167.003C52.7943 167.015 52.8597 167.025 52.9255 167.033C52.9909 167.043 53.0586 167.051 53.1249 167.058C53.1718 167.064 53.2182 167.07 53.2665 167.073C53.3106 167.078 53.3551 167.082 53.4006 167.085C53.4153 167.086 53.429 167.088 53.4437 167.088C53.492 167.092 53.5394 167.095 53.5858 167.097C53.6194 167.099 53.6521 167.101 53.6862 167.102C53.717 167.104 53.7483 167.105 53.7781 167.105C53.8103 167.107 53.843 167.108 53.8743 167.108C53.9316 167.109 53.9875 167.11 54.0443 167.11C55.3034 167.11 56.4942 166.823 57.5572 166.311C57.7348 166.226 57.9082 166.134 58.0782 166.037C58.3027 165.907 58.523 165.766 58.7343 165.616C58.8404 165.54 58.945 165.463 59.0469 165.383C59.5566 164.981 60.0179 164.521 60.4187 164.011C60.4987 163.909 60.5764 163.804 60.6522 163.698C60.8023 163.486 60.9435 163.267 61.0733 163.041C61.1704 162.872 61.2618 162.698 61.348 162.521C61.8591 161.458 62.1457 160.267 62.1457 159.009C62.1457 158.317 62.059 157.646 61.8961 157.005L62.7032 156.701C62.8979 157.435 63.0007 158.206 63.0007 159Z" fill="white"/>
<path d="M61.7035 156.036C61.6699 156.052 61.6358 156.067 61.6012 156.08C61.5448 156.104 61.4861 156.123 61.4269 156.138C61.3279 156.165 61.2251 156.181 61.1185 156.187L60.5179 156.208L58.7965 156.227L58.3475 156.241H58.3446C58.2769 156.251 58.2087 156.267 58.1376 156.287C57.7881 156.383 57.5119 156.585 57.304 156.889C57.1889 157.06 56.9122 157.83 56.9122 157.83L56.6024 158.675L55.3121 162.194C55.1454 162.654 54.8583 162.884 54.4486 162.884C53.8991 162.884 53.5732 162.651 53.4709 162.184L52.6074 158.167C52.6031 158.148 52.5766 158.147 52.5705 158.165L51.4038 161.556C51.2811 161.916 51.0447 162.203 50.6952 162.417C50.5502 162.507 50.3986 162.578 50.239 162.628C50.2068 162.639 50.1741 162.648 50.1405 162.656C49.9704 162.702 49.7918 162.723 49.6062 162.723H48.0984L47.4547 162.744H47.4519C47.3855 162.753 47.3159 162.769 47.2453 162.79C47.1373 162.819 47.0369 162.859 46.9427 162.909C46.9408 162.906 46.9384 162.901 46.9365 162.898C46.784 162.62 46.6471 162.331 46.5277 162.034C46.5111 161.991 46.4941 161.949 46.4775 161.907C46.477 161.905 46.477 161.905 46.4761 161.903C46.4761 161.903 46.531 161.874 46.5604 161.863C46.7063 161.809 46.8598 161.776 47.0236 161.767L47.6309 161.746C47.6309 161.746 49.7303 161.681 49.7701 161.681C49.7881 161.681 49.8056 161.679 49.8231 161.678C50.1646 161.658 50.4109 161.436 50.5573 161.011L52.1858 156.377C52.3232 155.976 52.4416 155.719 52.5392 155.605C52.705 155.397 52.966 155.293 53.3231 155.293C53.8551 155.293 54.1971 155.661 54.3477 156.399L55.0592 159.881C55.0634 159.9 55.09 159.902 55.0971 159.884L55.7389 158.114L55.9284 157.594L56.1676 156.934C56.556 155.866 57.1386 155.31 57.9155 155.266L58.7965 155.234L58.8761 155.232H60.0561L60.695 155.211C60.7069 155.209 60.7183 155.207 60.7301 155.205C60.786 155.196 60.8419 155.183 60.8987 155.166C60.9802 155.144 61.0579 155.116 61.1308 155.08C61.1616 155.066 61.1915 155.05 61.2208 155.033C61.2772 155.132 61.3317 155.232 61.3843 155.335C61.5012 155.562 61.6074 155.797 61.703 156.036C61.7026 156.035 61.7035 156.035 61.7035 156.036Z" fill="white"/>
<path d="M49.8049 164.045L49.6478 164.273L50.1603 164.67C50.172 164.679 50.1829 164.683 50.193 164.682C50.2032 164.681 50.2151 164.675 50.2291 164.664L50.2479 164.678L50.0996 164.894L50.081 164.879C50.0873 164.862 50.0891 164.847 50.0868 164.837C50.0844 164.827 50.0774 164.817 50.0658 164.808L49.3421 164.246L49.3554 164.227C49.3722 164.234 49.3856 164.236 49.3956 164.234C49.4055 164.231 49.4148 164.224 49.4236 164.211L49.9086 163.506C49.9172 163.494 49.9211 163.482 49.9202 163.471C49.9192 163.46 49.9132 163.448 49.902 163.433L49.9154 163.413L50.6251 163.963C50.6369 163.972 50.6477 163.977 50.6579 163.976C50.668 163.975 50.6802 163.968 50.694 163.957L50.7126 163.972L50.5643 164.187L50.5457 164.173C50.5518 164.155 50.5536 164.141 50.5514 164.13C50.5491 164.12 50.5423 164.11 50.5305 164.101L50.0321 163.714L49.896 163.912L50.2194 164.163C50.2312 164.172 50.242 164.176 50.2522 164.175C50.2623 164.174 50.2743 164.168 50.2883 164.156L50.3069 164.171L50.162 164.381L50.1434 164.367C50.1493 164.35 50.1511 164.336 50.149 164.325C50.1469 164.314 50.1399 164.304 50.1283 164.295L49.8049 164.045Z" fill="white"/>
<path d="M51.8986 164.734L51.6973 164.904L51.6834 164.885C51.6857 164.88 51.6875 164.877 51.6887 164.874C51.6952 164.858 51.6896 164.835 51.6716 164.806C51.6174 164.711 51.5374 164.639 51.4317 164.589C51.3851 164.567 51.3414 164.554 51.3008 164.549C51.2709 164.546 51.2441 164.549 51.2202 164.56C51.1963 164.571 51.1798 164.587 51.1707 164.609C51.1558 164.644 51.1661 164.678 51.2015 164.71C51.2198 164.726 51.2622 164.755 51.3288 164.795L51.4278 164.855C51.4865 164.891 51.5324 164.924 51.5654 164.954C51.5984 164.984 51.6251 165.017 51.6454 165.053C51.6659 165.089 51.6769 165.13 51.6788 165.175C51.6807 165.22 51.6728 165.264 51.6551 165.305C51.6271 165.372 51.5818 165.421 51.5192 165.453C51.4624 165.482 51.3903 165.49 51.3029 165.475C51.2376 165.465 51.1718 165.444 51.1053 165.412C50.9859 165.356 50.8808 165.27 50.7901 165.155C50.7704 165.132 50.7582 165.119 50.7534 165.116C50.7478 165.114 50.7365 165.114 50.72 165.119L50.7052 165.099L50.9005 164.915L50.9155 164.934C50.9137 164.938 50.9125 164.941 50.9117 164.942C50.903 164.963 50.9044 164.987 50.9159 165.013C50.9331 165.053 50.9678 165.097 51.0194 165.145C51.071 165.192 51.1238 165.229 51.1775 165.254C51.236 165.282 51.2904 165.296 51.3405 165.294C51.3681 165.294 51.3929 165.287 51.4145 165.275C51.4361 165.262 51.4514 165.245 51.4601 165.225C51.4734 165.194 51.4666 165.164 51.4402 165.135C51.4217 165.115 51.38 165.085 51.3149 165.045L51.2179 164.986C51.1528 164.946 51.1075 164.916 51.0823 164.896C51.0569 164.876 51.0332 164.852 51.0114 164.824C50.98 164.784 50.9617 164.738 50.9563 164.686C50.9514 164.639 50.9592 164.591 50.9796 164.543C51.0133 164.464 51.0672 164.41 51.1417 164.383C51.2393 164.347 51.3568 164.362 51.4941 164.427C51.5517 164.454 51.6029 164.486 51.6474 164.521C51.6919 164.557 51.7444 164.609 51.805 164.677C51.826 164.7 51.8394 164.713 51.8451 164.715C51.8543 164.72 51.8673 164.719 51.8841 164.715L51.8986 164.734Z" fill="white"/>
<path d="M52.8307 165.082L52.6692 165.845C52.6659 165.86 52.6669 165.872 52.6718 165.882C52.6766 165.891 52.6871 165.9 52.703 165.909L52.698 165.933L52.3972 165.862L52.4022 165.839C52.4203 165.838 52.4333 165.834 52.4416 165.828C52.4498 165.821 52.4556 165.811 52.4589 165.795L52.6205 165.033L52.3209 164.962C52.3068 164.959 52.2952 164.96 52.2863 164.965C52.2775 164.97 52.2686 164.981 52.2602 164.998L52.2376 164.992L52.2926 164.732L52.3152 164.737C52.3166 164.757 52.3202 164.77 52.3261 164.779C52.3319 164.787 52.3419 164.793 52.3561 164.796L53.1648 164.986C53.1794 164.989 53.1912 164.989 53.2001 164.984C53.2091 164.979 53.2178 164.968 53.2262 164.951L53.2488 164.956L53.1937 165.216L53.1712 165.211C53.1703 165.192 53.1668 165.178 53.1607 165.17C53.1545 165.161 53.1442 165.155 53.1296 165.152L52.8307 165.082Z" fill="white"/>
<path d="M53.7426 165.843C53.776 165.845 53.8032 165.859 53.8245 165.885C53.8459 165.91 53.8554 165.94 53.8533 165.975C53.8513 166.009 53.8378 166.037 53.813 166.059C53.7881 166.082 53.7595 166.092 53.7273 166.09C53.6945 166.088 53.6674 166.074 53.6458 166.048C53.6242 166.022 53.6146 165.992 53.6166 165.958C53.6186 165.924 53.6319 165.896 53.6562 165.874C53.6806 165.852 53.7093 165.841 53.7426 165.843Z" fill="white"/>
<path d="M54.6856 165.417L54.6616 165.144L54.6847 165.142C54.6916 165.16 54.6976 165.171 54.703 165.176C54.7083 165.181 54.7159 165.183 54.7261 165.182C54.7308 165.182 54.7376 165.18 54.746 165.177L54.8066 165.154L54.8027 165.11C54.8015 165.095 54.797 165.084 54.7895 165.076C54.782 165.069 54.7694 165.064 54.7517 165.061L54.7495 165.036L55.0502 165.005L55.0524 165.029C55.0355 165.036 55.024 165.044 55.0179 165.052C55.0118 165.061 55.0096 165.073 55.011 165.088L55.087 165.956C55.0884 165.972 55.0928 165.983 55.1001 165.991C55.1076 165.998 55.1201 166.003 55.1378 166.007L55.14 166.031L54.8393 166.062L54.8371 166.038C54.854 166.031 54.8655 166.023 54.8714 166.015C54.8775 166.006 54.8798 165.994 54.8784 165.978L54.8216 165.329L54.7553 165.353C54.7398 165.359 54.7289 165.366 54.7226 165.374C54.7163 165.383 54.7115 165.396 54.7082 165.414L54.6856 165.417Z" fill="white"/>
<path d="M56.0031 165.816L56.0575 165.54L56.0797 165.544C56.0805 165.557 56.0818 165.567 56.0837 165.573C56.0893 165.593 56.1095 165.607 56.1447 165.616C56.1738 165.624 56.2091 165.627 56.2509 165.624C56.2927 165.622 56.3311 165.615 56.3662 165.603C56.4432 165.578 56.5029 165.535 56.5455 165.475C56.573 165.435 56.5897 165.394 56.5959 165.35C56.6021 165.305 56.5984 165.251 56.5844 165.188C56.5502 165.246 56.5121 165.293 56.4698 165.328C56.4275 165.363 56.375 165.39 56.3123 165.411C56.2121 165.444 56.1191 165.448 56.0333 165.422C55.9846 165.407 55.942 165.381 55.9059 165.344C55.8712 165.307 55.8463 165.263 55.8313 165.211C55.8013 165.108 55.8187 165.011 55.8835 164.922C55.9464 164.835 56.0391 164.771 56.1618 164.73C56.2956 164.686 56.4104 164.686 56.5064 164.731C56.5699 164.761 56.6245 164.807 56.6697 164.871C56.7132 164.933 56.7458 165.001 56.7677 165.076C56.8119 165.229 56.8023 165.368 56.7387 165.493C56.6729 165.622 56.565 165.712 56.4149 165.761C56.3622 165.779 56.3136 165.79 56.2687 165.794C56.2237 165.798 56.1693 165.796 56.1051 165.789C56.083 165.786 56.0667 165.787 56.0561 165.79C56.0483 165.793 56.0414 165.799 56.0352 165.807C56.0308 165.815 56.0274 165.82 56.0253 165.823L56.0031 165.816ZM56.203 164.894C56.1325 164.917 56.0801 164.954 56.0463 165.005C56.0179 165.047 56.0106 165.092 56.0245 165.14C56.0381 165.187 56.0677 165.219 56.1134 165.238C56.1677 165.259 56.2304 165.258 56.3015 165.234C56.373 165.211 56.4255 165.174 56.459 165.123C56.4872 165.081 56.4946 165.036 56.4812 164.99C56.4672 164.942 56.4374 164.909 56.3916 164.891C56.3385 164.869 56.2756 164.87 56.203 164.894Z" fill="white"/>
<path d="M57.4589 165.266L57.4595 164.984L57.4821 164.983C57.4853 164.995 57.4885 165.005 57.4917 165.011C57.5008 165.029 57.5236 165.038 57.5596 165.04C57.5895 165.041 57.6247 165.036 57.6653 165.025C57.7058 165.013 57.7419 164.998 57.7741 164.979C57.8448 164.937 57.8951 164.883 57.9253 164.815C57.9447 164.77 57.9532 164.726 57.9508 164.681C57.9485 164.637 57.9344 164.585 57.9085 164.525C57.8863 164.59 57.8578 164.644 57.8229 164.687C57.788 164.73 57.742 164.769 57.6844 164.803C57.5926 164.857 57.5021 164.881 57.413 164.874C57.3624 164.87 57.3157 164.853 57.2732 164.824C57.2322 164.796 57.1993 164.759 57.1747 164.711C57.1254 164.616 57.1241 164.518 57.1704 164.417C57.2153 164.318 57.2941 164.235 57.4066 164.169C57.5292 164.097 57.6419 164.072 57.7446 164.096C57.8127 164.111 57.8749 164.145 57.9314 164.197C57.9858 164.248 58.0309 164.308 58.0667 164.377C58.1394 164.517 58.1565 164.655 58.1179 164.791C58.0781 164.931 57.9894 165.042 57.8518 165.123C57.8036 165.151 57.7579 165.172 57.7147 165.186C57.6716 165.2 57.6178 165.21 57.5534 165.217C57.5313 165.219 57.5155 165.223 57.5057 165.229C57.4985 165.233 57.4928 165.24 57.4886 165.25C57.4856 165.258 57.4834 165.264 57.4816 165.267L57.4589 165.266ZM57.4786 164.32C57.4138 164.358 57.3698 164.406 57.3463 164.463C57.3266 164.51 57.3281 164.556 57.3508 164.6C57.3732 164.643 57.4084 164.668 57.4566 164.676C57.5139 164.685 57.5751 164.671 57.6403 164.633C57.7058 164.594 57.7503 164.546 57.7734 164.49C57.7929 164.442 57.7917 164.397 57.7698 164.355C57.7468 164.31 57.7113 164.284 57.663 164.276C57.6067 164.267 57.5453 164.282 57.4786 164.32Z" fill="white"/>
<path d="M58.7795 164.415L58.7268 164.139L58.7487 164.133C58.7543 164.144 58.759 164.153 58.7633 164.158C58.7755 164.173 58.7996 164.178 58.8354 164.172C58.865 164.166 58.8985 164.154 58.9359 164.134C58.9733 164.114 59.0061 164.092 59.034 164.066C59.0953 164.01 59.1344 163.946 59.1511 163.874C59.1616 163.826 59.1615 163.78 59.1509 163.737C59.1401 163.694 59.1164 163.646 59.08 163.593C59.0705 163.662 59.0528 163.72 59.0267 163.77C59.0008 163.82 58.9627 163.867 58.9127 163.913C58.8329 163.986 58.7487 164.028 58.6602 164.041C58.6097 164.048 58.5608 164.041 58.5137 164.022C58.4682 164.004 58.4289 163.973 58.3958 163.932C58.3296 163.85 58.3096 163.754 58.3359 163.645C58.3613 163.539 58.4228 163.441 58.5206 163.352C58.6272 163.255 58.733 163.207 58.8381 163.208C58.9076 163.208 58.9751 163.228 59.0405 163.267C59.1034 163.305 59.1589 163.354 59.2072 163.414C59.305 163.536 59.348 163.667 59.3359 163.808C59.3235 163.954 59.2575 164.082 59.138 164.19C59.0961 164.229 59.0552 164.259 59.0155 164.282C58.9758 164.304 58.925 164.326 58.8632 164.346C58.842 164.353 58.8271 164.36 58.8187 164.368C58.8125 164.374 58.8082 164.382 58.8058 164.392C58.8044 164.401 58.8033 164.407 58.8023 164.411L58.7795 164.415ZM58.6197 163.485C58.5634 163.536 58.5292 163.592 58.5169 163.653C58.5065 163.703 58.5167 163.748 58.5473 163.786C58.5772 163.823 58.6167 163.84 58.6653 163.838C58.7232 163.835 58.7806 163.807 58.8371 163.756C58.8941 163.704 58.9286 163.648 58.9404 163.588C58.9505 163.537 58.9408 163.493 58.9115 163.456C58.8805 163.418 58.8407 163.4 58.7918 163.403C58.7352 163.405 58.6777 163.433 58.6197 163.485Z" fill="white"/>
<defs>
<filter id="filter0_d_1264_1127" x="0" y="0" width="199.354" height="208.005" filterUnits="userSpaceOnUse" color-interpolation-filters="sRGB">
<feFlood flood-opacity="0" result="BackgroundImageFix"/>
<feColorMatrix in="SourceAlpha" type="matrix" values="0 0 0 0 0 0 0 0 0 0 0 0 0 0 0 0 0 0 127 0" result="hardAlpha"/>
<feOffset dy="4"/>
<feGaussianBlur stdDeviation="5"/>
<feComposite in2="hardAlpha" operator="out"/>
<feColorMatrix type="matrix" values="0 0 0 0 0 0 0 0 0 0 0 0 0 0 0 0 0 0 0.25 0"/>
<feBlend mode="normal" in2="BackgroundImageFix" result="effect1_dropShadow_1264_1127"/>
<feBlend mode="normal" in="SourceGraphic" in2="effect1_dropShadow_1264_1127" result="shape"/>
</filter>
</defs>
</svg>
