<svg width="20" height="20" viewBox="0 0 20 20" fill="none" xmlns="http://www.w3.org/2000/svg">
<path d="M19.3382 6.41254L18.5587 6.70567C18.4524 6.4399 18.3345 6.1794 18.2045 5.9268C18.1466 5.81312 18.0861 5.70155 18.0229 5.59104C17.9903 5.60946 17.9571 5.62735 17.9229 5.64314C17.9135 5.62525 17.9045 5.6084 17.894 5.59104C16.3498 2.85604 13.4156 1.0078 10.0494 1.0078C8.65147 1.0078 7.32728 1.32724 6.14782 1.89561C5.9494 1.99086 5.75782 2.09243 5.56888 2.20031C5.31783 2.34504 5.0731 2.50081 4.83836 2.66922C4.72047 2.75289 4.60573 2.83973 4.491 2.92814C3.92522 3.37283 3.41311 3.88594 2.96838 4.4522C2.87786 4.56535 2.7926 4.68165 2.70786 4.79848C2.54207 5.03478 2.38471 5.27738 2.23997 5.52894C2.14366 5.69629 2.05313 5.86733 1.96734 6.04205C1.3784 7.23825 1.04841 8.58496 1.04841 10.0096C1.04841 10.0769 1.04841 10.1443 1.05051 10.2116C1.05104 10.2374 1.05104 10.2611 1.05262 10.2853C1.05314 10.3311 1.0542 10.3769 1.05735 10.4216C1.05841 10.459 1.06104 10.4953 1.06367 10.5327C1.06525 10.5742 1.06735 10.6158 1.07156 10.6574C1.07314 10.6874 1.07472 10.7179 1.07788 10.7474C1.08156 10.7879 1.08472 10.8279 1.08946 10.8684C1.09315 10.9247 1.10051 10.9821 1.1063 11.0395C1.11419 11.1131 1.1242 11.1868 1.1342 11.2594C1.1342 11.2594 1.1342 11.26 1.1342 11.261C1.1442 11.3336 1.1542 11.4068 1.16841 11.4794C1.20156 11.6841 1.24261 11.8862 1.29104 12.0862L0.332628 12.5667C0.115788 11.7468 0 10.8868 0 9.99956C0 4.47641 4.47836 0 10.0015 0C14.2598 0 17.8966 2.66132 19.3382 6.41254Z" fill="#77B86C"/>
<path d="M19.9998 10.0005C19.9998 15.5232 15.5241 20.0001 9.99998 20.0001C6.3895 20.0001 3.22481 18.0861 1.46746 15.2185C1.22799 14.8285 1.01589 14.4217 0.830629 14.0001C0.78484 13.8949 0.740103 13.7886 0.697998 13.6807L1.55746 13.2671V13.2665L1.63957 13.2271C1.64009 13.2286 1.64009 13.2292 1.64115 13.2308C1.65957 13.2781 1.67851 13.3255 1.69693 13.3723C1.82956 13.7023 1.98114 14.0223 2.15114 14.3317C2.15324 14.3354 2.15588 14.3401 2.15798 14.3443C3.4306 16.6573 5.68951 18.3497 8.36895 18.8549C8.44105 18.8697 8.51369 18.8823 8.58579 18.8928C8.65947 18.906 8.7321 18.917 8.80526 18.926C8.87789 18.937 8.95315 18.946 9.02684 18.9539C9.07894 18.9607 9.13052 18.9665 9.1842 18.9702C9.23315 18.9755 9.28262 18.9802 9.33315 18.9834C9.34946 18.9849 9.36473 18.9865 9.38104 18.987C9.43473 18.9918 9.48736 18.9949 9.53894 18.997C9.5763 18.9991 9.61262 19.0018 9.65051 19.0023C9.68472 19.0044 9.71946 19.0055 9.75262 19.006C9.78841 19.0076 9.82472 19.0091 9.85946 19.0091C9.92314 19.0107 9.98525 19.0112 10.0484 19.0112C11.4473 19.0112 12.7705 18.6929 13.9515 18.124C14.1489 18.0287 14.3415 17.9271 14.5305 17.8187C14.7799 17.6745 15.0247 17.5182 15.2594 17.3509C15.3773 17.2672 15.4936 17.1814 15.6067 17.092C16.1731 16.6462 16.6857 16.1342 17.1309 15.5679C17.2199 15.4547 17.3062 15.3384 17.3904 15.2206C17.5573 14.9848 17.7141 14.7417 17.8583 14.4906C17.9662 14.3022 18.0678 14.1096 18.1636 13.9128C18.7314 12.7319 19.0499 11.4078 19.0499 10.01C19.0499 9.24113 18.9535 8.49594 18.7725 7.78391L19.6693 7.44604C19.8856 8.26176 19.9998 9.11799 19.9998 10.0005Z" fill="#77B86C"/>
<path d="M18.5587 6.70716C18.5213 6.72558 18.4834 6.74189 18.445 6.75663C18.3823 6.78242 18.3171 6.80399 18.2513 6.82083C18.1413 6.8503 18.0271 6.8682 17.9087 6.87504L17.2413 6.89819L15.3287 6.91924L14.8298 6.93556H14.8266C14.7513 6.94661 14.6756 6.96345 14.5966 6.98608C14.2082 7.09291 13.9013 7.3171 13.6703 7.65549C13.5424 7.84547 13.235 8.70013 13.235 8.70013L12.8908 9.64004L11.4572 13.5491C11.2719 14.0607 10.953 14.3164 10.4977 14.3164C9.88719 14.3164 9.52509 14.057 9.41141 13.5386L8.45195 9.07535C8.44721 9.0543 8.41774 9.05272 8.4109 9.07325L7.1146 12.8408C6.97828 13.2407 6.71565 13.5597 6.32724 13.7975C6.16619 13.8975 5.99777 13.9765 5.8204 14.0317C5.78461 14.0443 5.7483 14.0543 5.71093 14.0633C5.52198 14.1138 5.32357 14.1375 5.11725 14.1375H3.44201L2.72676 14.1607H2.7236C2.64992 14.1707 2.57255 14.1885 2.49413 14.2112C2.37413 14.2438 2.26256 14.2885 2.15782 14.3438C2.15572 14.3401 2.15308 14.3354 2.15098 14.3312C1.98151 14.0222 1.8294 13.7017 1.69677 13.3718C1.67835 13.3244 1.65941 13.2771 1.64098 13.2302C1.64046 13.2286 1.64046 13.2281 1.6394 13.2265C1.6394 13.2265 1.70046 13.1934 1.73309 13.1818C1.89519 13.1213 2.06571 13.0855 2.24782 13.0755L2.92255 13.0513C2.92255 13.0513 5.25515 12.9792 5.29936 12.9792C5.31936 12.9792 5.33883 12.9776 5.3583 12.976C5.73777 12.9534 6.01145 12.7071 6.17408 12.2345L7.98353 7.0866C8.13616 6.64085 8.26774 6.35456 8.37616 6.22826C8.56037 5.99723 8.85036 5.88198 9.2472 5.88198C9.83824 5.88198 10.2182 6.29088 10.3856 7.11028L11.1761 10.9799C11.1809 11.001 11.2103 11.0025 11.2182 10.9831L11.9314 9.01588L12.1419 8.43805L12.4077 7.70496C12.8393 6.51876 13.4866 5.90039 14.3498 5.85145L15.3287 5.81672L15.4171 5.81356H16.7282L17.4381 5.79041C17.4513 5.78883 17.4639 5.78672 17.4771 5.78409C17.5392 5.77409 17.6013 5.75936 17.6645 5.74094C17.755 5.7162 17.8413 5.68463 17.9223 5.64463C17.9566 5.62937 17.9897 5.61147 18.0223 5.59253C18.085 5.70252 18.1455 5.81409 18.2039 5.92829C18.3339 6.18089 18.4518 6.4414 18.5581 6.70716C18.5576 6.70611 18.5587 6.70611 18.5587 6.70716Z" fill="#77B86C"/>
<path d="M5.3383 15.6049L5.16376 15.8585L5.73315 16.2999C5.7462 16.31 5.75827 16.3146 5.76954 16.3135C5.78082 16.3124 5.79412 16.3055 5.80966 16.2926L5.83051 16.3088L5.66573 16.5483L5.64508 16.5321C5.65205 16.5126 5.65405 16.4968 5.65148 16.4852C5.64891 16.4736 5.6411 16.4626 5.62825 16.4526L4.82405 15.829L4.83892 15.8074C4.85749 15.8149 4.87244 15.8174 4.88357 15.8148C4.8945 15.8123 4.90484 15.8041 4.9146 15.79L5.45352 15.0066C5.46307 14.9926 5.46738 14.9796 5.46643 14.9676C5.46528 14.9556 5.4586 14.9415 5.44619 14.9248L5.46106 14.9032L6.24966 15.5146C6.26272 15.5247 6.27479 15.5292 6.28606 15.5282C6.29733 15.5271 6.31084 15.5201 6.32616 15.5075L6.34681 15.5236L6.18204 15.7631L6.16139 15.747C6.16815 15.7276 6.17015 15.7119 6.16779 15.7001C6.16523 15.6883 6.15762 15.6773 6.14456 15.6672L5.59076 15.2379L5.43958 15.4577L5.79891 15.7362C5.81196 15.7463 5.82403 15.7509 5.8353 15.7498C5.84658 15.7487 5.85988 15.7418 5.87541 15.7289L5.89607 15.7451L5.73512 15.979L5.71447 15.9628C5.72101 15.9436 5.723 15.9281 5.72065 15.9161C5.71829 15.9043 5.7105 15.8931 5.69763 15.8832L5.3383 15.6049Z" fill="#77B86C"/>
<path d="M7.66467 16.3712L7.44101 16.5607L7.4256 16.5388C7.42819 16.534 7.43015 16.53 7.43147 16.5268C7.43875 16.5094 7.4325 16.484 7.41249 16.4508C7.35228 16.3461 7.26344 16.2662 7.146 16.2105C7.09418 16.1859 7.0456 16.1709 7.00047 16.1653C6.9673 16.1619 6.93745 16.1661 6.91093 16.1779C6.88439 16.1899 6.86606 16.2078 6.85592 16.2319C6.83938 16.2712 6.85079 16.3087 6.89015 16.3446C6.91052 16.3629 6.95767 16.3943 7.03159 16.4391L7.14159 16.506C7.20687 16.546 7.25783 16.5828 7.29447 16.6161C7.33112 16.6495 7.36083 16.6859 7.3834 16.7253C7.40612 16.7661 7.41844 16.8116 7.42055 16.8616C7.42266 16.9116 7.4138 16.9599 7.39418 17.0063C7.36311 17.0798 7.31268 17.1344 7.24313 17.1699C7.1801 17.2025 7.09995 17.2108 7.00286 17.1948C6.93029 17.183 6.85715 17.1598 6.78325 17.1248C6.65064 17.0619 6.53389 16.9668 6.43302 16.8393C6.41115 16.813 6.39765 16.7987 6.39233 16.7961C6.38603 16.7931 6.37356 16.7939 6.35512 16.7988L6.33869 16.7772L6.55572 16.5721L6.57237 16.593C6.57039 16.5976 6.56906 16.601 6.56819 16.6029C6.55849 16.6258 6.5601 16.6521 6.57283 16.6814C6.59199 16.726 6.63046 16.7749 6.68782 16.8278C6.74519 16.8808 6.80383 16.9214 6.86353 16.9497C6.92856 16.9805 6.98898 16.9954 7.04459 16.9941C7.07531 16.9933 7.10287 16.9861 7.12688 16.972C7.15088 16.958 7.16783 16.9397 7.17753 16.9166C7.19229 16.8819 7.18472 16.8488 7.15544 16.817C7.13482 16.7948 7.08853 16.7617 7.01621 16.717L6.90838 16.6512C6.83604 16.6071 6.78574 16.574 6.7577 16.5516C6.72946 16.5294 6.7032 16.5026 6.67891 16.4714C6.64407 16.4274 6.62374 16.3763 6.61773 16.3183C6.61229 16.266 6.62093 16.213 6.64363 16.1592C6.68109 16.0708 6.74093 16.0115 6.82372 15.9813C6.93216 15.9413 7.06274 15.9575 7.21526 16.0299C7.2793 16.0602 7.33614 16.0953 7.38558 16.1351C7.43502 16.175 7.49341 16.2326 7.56075 16.3082C7.58406 16.3334 7.59897 16.3476 7.60527 16.3506C7.61552 16.3555 7.62997 16.3552 7.64863 16.3499L7.66467 16.3712Z" fill="#77B86C"/>
<path d="M8.70118 16.7579L8.52171 17.6055C8.51806 17.6224 8.51914 17.6361 8.52456 17.6466C8.52998 17.657 8.54163 17.6673 8.55931 17.6771L8.5537 17.7033L8.21946 17.625L8.22507 17.5987C8.24517 17.5978 8.25957 17.5936 8.26886 17.5867C8.27795 17.5796 8.28443 17.5677 8.28808 17.5508L8.46755 16.7032L8.13471 16.625C8.11899 16.6215 8.10612 16.6222 8.09628 16.6278C8.08644 16.6334 8.07656 16.6454 8.06721 16.6643L8.04216 16.6584L8.1033 16.3693L8.12836 16.3752C8.12996 16.3964 8.13399 16.4117 8.14045 16.4211C8.14691 16.4305 8.1581 16.4371 8.17381 16.4407L9.07234 16.6514C9.08864 16.6552 9.10172 16.6542 9.11155 16.6489C9.12159 16.6433 9.13128 16.6313 9.14062 16.6124L9.16567 16.6183L9.10453 16.9074L9.07948 16.9015C9.07848 16.8804 9.07464 16.8651 9.06778 16.8556C9.06092 16.8462 9.04954 16.8396 9.03323 16.8358L8.70118 16.7579Z" fill="#77B86C"/>
<path d="M9.71317 17.604C9.75019 17.6065 9.7805 17.6219 9.80409 17.6503C9.82789 17.6788 9.83845 17.7122 9.83618 17.7508C9.83396 17.7882 9.81893 17.8194 9.7913 17.8444C9.76367 17.8694 9.73194 17.8808 9.69612 17.8786C9.6597 17.8761 9.62959 17.8607 9.60562 17.8318C9.58163 17.8032 9.57087 17.7697 9.57311 17.7318C9.57534 17.6944 9.59016 17.6633 9.61718 17.6386C9.6442 17.6138 9.67613 17.6022 9.71317 17.604Z" fill="#77B86C"/>
<path d="M10.7616 17.13L10.735 16.8271L10.7605 16.8245C10.7682 16.8444 10.7749 16.8572 10.781 16.8628C10.7868 16.8683 10.7953 16.8706 10.8066 16.8693C10.8118 16.8687 10.8193 16.8668 10.8287 16.8637L10.896 16.8381L10.8917 16.7889C10.8903 16.7722 10.8854 16.7599 10.8771 16.7517C10.8687 16.7435 10.8547 16.7376 10.835 16.7341L10.8326 16.7073L11.1667 16.6726L11.1691 16.6994C11.1504 16.707 11.1376 16.7155 11.1308 16.7248C11.1241 16.7342 11.1215 16.7475 11.1231 16.7648L11.2076 17.7295C11.2091 17.7469 11.2141 17.7594 11.2222 17.7676C11.2305 17.7758 11.2443 17.7817 11.264 17.7852L11.2664 17.812L10.9323 17.8467L10.9299 17.8199C10.9487 17.8123 10.9614 17.8038 10.968 17.794C10.9748 17.7845 10.9773 17.7709 10.9758 17.7536L10.9127 17.0325L10.8391 17.0596C10.8218 17.0659 10.8097 17.0736 10.8027 17.0827C10.7957 17.0918 10.7903 17.1068 10.7867 17.1273L10.7616 17.13Z" fill="#77B86C"/>
<path d="M12.2256 17.5734L12.286 17.2666L12.3107 17.2707C12.3116 17.2851 12.313 17.296 12.3151 17.3035C12.3213 17.3249 12.3438 17.3409 12.3829 17.3513C12.4152 17.36 12.4545 17.3628 12.5009 17.3601C12.5473 17.3574 12.59 17.3494 12.629 17.3366C12.7145 17.3082 12.7809 17.2608 12.8282 17.1944C12.8587 17.1503 12.8773 17.1038 12.8842 17.0548C12.8911 17.0058 12.887 16.9457 12.8714 16.8749C12.8334 16.94 12.7911 16.992 12.7441 17.0307C12.6971 17.0695 12.6388 17.1003 12.5691 17.1233C12.4577 17.1603 12.3545 17.1642 12.2591 17.1356C12.2049 17.1191 12.1577 17.09 12.1176 17.0484C12.079 17.0081 12.0514 16.959 12.0347 16.9012C12.0014 16.786 12.0207 16.6786 12.0927 16.5794C12.1625 16.4826 12.2655 16.4116 12.4019 16.3664C12.5506 16.3173 12.6782 16.3176 12.7848 16.3677C12.8553 16.4005 12.916 16.4523 12.9662 16.5233C13.0146 16.5915 13.0508 16.6675 13.0751 16.7512C13.1242 16.9214 13.1135 17.0759 13.0429 17.2144C12.9698 17.358 12.8499 17.4574 12.6831 17.5125C12.6246 17.5318 12.5705 17.5438 12.5206 17.5483C12.4707 17.5529 12.4102 17.5512 12.3389 17.5432C12.3143 17.5401 12.2962 17.5407 12.2845 17.5445C12.2757 17.5474 12.2681 17.5537 12.2613 17.5637C12.2563 17.5718 12.2525 17.5774 12.2502 17.5805L12.2256 17.5734ZM12.4477 16.5482C12.3693 16.5743 12.3112 16.6154 12.2735 16.6718C12.242 16.7184 12.2339 16.7684 12.2493 16.8219C12.2644 16.8741 12.2973 16.9103 12.3481 16.9304C12.4084 16.9542 12.4781 16.9532 12.5571 16.927C12.6365 16.9006 12.6949 16.8595 12.7321 16.8033C12.7634 16.7561 12.7717 16.7069 12.7568 16.6557C12.7412 16.6018 12.7081 16.5649 12.6573 16.5449C12.5982 16.5209 12.5284 16.5221 12.4477 16.5482Z" fill="#77B86C"/>
<path d="M13.8433 16.9621L13.8439 16.6489L13.8691 16.6476C13.8725 16.6613 13.8762 16.6717 13.8797 16.6787C13.8898 16.6983 13.9151 16.709 13.9551 16.7108C13.9884 16.7122 14.0275 16.7067 14.0725 16.6939C14.1175 16.6811 14.1577 16.6643 14.1934 16.6432C14.272 16.5969 14.3279 16.5363 14.3614 16.461C14.383 16.4113 14.3925 16.3617 14.3897 16.3123C14.3872 16.2629 14.3715 16.2052 14.3428 16.139C14.3182 16.211 14.2864 16.2708 14.2477 16.3189C14.2089 16.3669 14.1577 16.4095 14.0937 16.4472C13.9917 16.5074 13.8912 16.5336 13.7922 16.5262C13.736 16.5218 13.6842 16.5034 13.6368 16.4713C13.5913 16.4401 13.5548 16.3982 13.5275 16.3453C13.4727 16.2398 13.4712 16.1307 13.5227 16.0181C13.5726 15.9084 13.6601 15.8166 13.7851 15.743C13.9213 15.6627 14.0465 15.6356 14.1607 15.6615C14.2363 15.6782 14.3055 15.7158 14.3682 15.7745C14.4287 15.8308 14.4787 15.8973 14.5185 15.9739C14.5993 16.13 14.6183 16.2832 14.5755 16.4339C14.5312 16.5901 14.4327 16.7131 14.2798 16.8031C14.2262 16.8345 14.1754 16.858 14.1275 16.8733C14.0796 16.8885 14.0197 16.8999 13.9482 16.9074C13.9237 16.9097 13.9061 16.9141 13.8952 16.9205C13.8872 16.9254 13.8809 16.9332 13.8762 16.9441C13.8729 16.9532 13.8704 16.9595 13.8685 16.9631L13.8433 16.9621ZM13.8652 15.9112C13.7931 15.9535 13.7442 16.0062 13.7181 16.0695C13.6963 16.122 13.6979 16.1726 13.7232 16.2215C13.748 16.2694 13.7871 16.2978 13.8407 16.3064C13.9043 16.3167 13.9723 16.3007 14.0447 16.2581C14.1176 16.2152 14.1669 16.1622 14.1926 16.0992C14.2143 16.0462 14.213 15.9963 14.1887 15.9495C14.1631 15.9001 14.1237 15.8711 14.07 15.8624C14.0074 15.8519 13.9392 15.8683 13.8652 15.9112Z" fill="#77B86C"/>
<path d="M15.3107 16.0167L15.2522 15.7101L15.2765 15.7033C15.2826 15.7161 15.2879 15.7255 15.2927 15.7315C15.3063 15.7484 15.333 15.7535 15.3727 15.7467C15.4057 15.7409 15.4429 15.7271 15.4844 15.705C15.526 15.6829 15.5625 15.6578 15.5934 15.6296C15.6616 15.5675 15.705 15.4962 15.7236 15.4154C15.7352 15.3623 15.7351 15.3118 15.7233 15.2637C15.7113 15.2159 15.685 15.1626 15.6445 15.1042C15.634 15.1799 15.6143 15.2453 15.5853 15.3005C15.5565 15.3557 15.5142 15.4085 15.4587 15.4591C15.37 15.5398 15.2765 15.5871 15.1781 15.601C15.122 15.6087 15.0677 15.602 15.0153 15.5806C14.9648 15.5599 14.9211 15.5264 14.8843 15.4807C14.8108 15.3891 14.7885 15.2827 14.8178 15.1613C14.846 15.0434 14.9143 14.9348 15.023 14.8359C15.1414 14.7282 15.259 14.6748 15.3757 14.6758C15.453 14.676 15.528 14.698 15.6007 14.742C15.6705 14.7841 15.7323 14.8385 15.7859 14.9049C15.8945 15.0402 15.9423 15.1863 15.9289 15.343C15.9151 15.5052 15.8417 15.6469 15.709 15.7675C15.6624 15.8099 15.617 15.8436 15.5729 15.8688C15.5288 15.894 15.4723 15.9179 15.4037 15.9407C15.3801 15.9483 15.3636 15.9562 15.3542 15.9648C15.3473 15.9712 15.3426 15.9802 15.3399 15.992C15.3384 16.0016 15.3371 16.0083 15.336 16.0121L15.3107 16.0167ZM15.1331 14.9838C15.0706 15.0408 15.0325 15.1029 15.0189 15.1702C15.0073 15.2263 15.0187 15.2754 15.0526 15.3179C15.0859 15.3594 15.1297 15.3786 15.1838 15.3757C15.2481 15.3722 15.3119 15.342 15.3746 15.2846C15.438 15.2271 15.4763 15.1648 15.4895 15.0976C15.5007 15.0411 15.4899 14.9927 15.4573 14.952C15.4228 14.9091 15.3786 14.8893 15.3244 14.8923C15.2615 14.8953 15.1975 14.9259 15.1331 14.9838Z" fill="#77B86C"/>
</svg>
